<svg xmlns="http://www.w3.org/2000/svg" viewBox="-75 -80 150 165">
  <defs>
    <filter id="sh" x="-20%" y="-20%" width="140%" height="140%">
      <feDropShadow dx="0" dy="4" stdDeviation="6" flood-color="#1E2E3D" flood-opacity="0.25"/>
    </filter>
  </defs>

  <g filter="url(#sh)">
    <polygon points="0,-65 56.3,-32.5 56.3,32.5 0,65 -56.3,32.5 -56.3,-32.5" fill="#2B4360"/>
    <path d="M -6,-55 L -48,-31 C -51,-29 -51,-25 -51,-25 L -51,21 C -51,24 -49,26 -46,28 L -6,51 Z" fill="#4CB2A4"/>
    <path d="M 6,-55 L 48,-31 C 51,-29 51,-25 51,-25 L 14,-4 Z" fill="#5CC7B8"/>
    <path d="M 12,3 L 51,-20 L 51,21 C 51,24 49,26 46,28 L 6,51 Z" fill="#F49E58"/>
    <path d="M 0,-65 L 0,65" stroke="#2B4360" stroke-width="7" stroke-linecap="round"/>
    <path d="M -56.3,32.5 L 56.3,-32.5" stroke="#2B4360" stroke-width="7" stroke-linecap="round"/>
    <polygon points="0,-65 56.3,-32.5 56.3,32.5 0,65 -56.3,32.5 -56.3,-32.5" fill="none" stroke="#2B4360" stroke-width="7" stroke-linejoin="round"/>
    <g transform="translate(-27,2) scale(0.9)">
      <circle cx="0" cy="0" r="14" fill="#FFFFFF"/>
      <text x="0" y="5" font-family="system-ui,-apple-system,sans-serif" font-weight="800" font-size="16" fill="#2B4360" text-anchor="middle">$</text>
    </g>
    <g transform="translate(26,12) scale(0.85)" fill="#2B4360">
      <circle cx="-5" cy="-8" r="5"/>
      <path d="M -12,4 C -12,-2 -8,-3 -5,-3 C -2,-3 2,-2 2,4 Z"/>
      <circle cx="7" cy="-4" r="6" stroke="#F49E58" stroke-width="2.5" fill="#2B4360"/>
      <path d="M 0,10 C 0,3 4,2 8,2 C 12,2 16,3 16,10 Z" stroke="#F49E58" stroke-width="2.5" fill="#2B4360"/>
    </g>
    <line x1="-38" y1="52" x2="38" y2="-52" stroke="#FFFFFF" stroke-width="8" stroke-linecap="round"/>
    <line x1="-38" y1="52" x2="38" y2="-52" stroke="#2B4360" stroke-width="4" stroke-linecap="round"/>
  </g>
</svg>
